<?xml version="1.0" encoding="UTF-8" standalone="no"?>
<svg
   class="fusion-waves-opacity-candy"
   fill="#fff"
   viewBox="0 1 1024 216"
   preserveAspectRatio="none"
   version="1.1"
   id="svg24"
   sodipodi:docname="svg-0.svg"
   inkscape:version="1.2.2 (732a01da63, 2022-12-09)"
   xmlns:inkscape="http://www.inkscape.org/namespaces/inkscape"
   xmlns:sodipodi="http://sodipodi.sourceforge.net/DTD/sodipodi-0.dtd"
   xmlns="http://www.w3.org/2000/svg"
   xmlns:svg="http://www.w3.org/2000/svg">
  <defs
     id="defs28" />
  <sodipodi:namedview
     id="namedview26"
     pagecolor="#ffffff"
     bordercolor="#000000"
     borderopacity="0.25"
     inkscape:showpageshadow="2"
     inkscape:pageopacity="0.0"
     inkscape:pagecheckerboard="0"
     inkscape:deskcolor="#d1d1d1"
     showgrid="false"
     inkscape:zoom="1.21875"
     inkscape:cx="460.71795"
     inkscape:cy="173.94872"
     inkscape:window-width="2560"
     inkscape:window-height="1009"
     inkscape:window-x="-8"
     inkscape:window-y="75"
     inkscape:window-maximized="1"
     inkscape:current-layer="svg24" />
  <path
     class="st0"
     d="M0 215.4c19.4.5 38.7 1.6 57.7.3 206.6-15 248.5-126.6 455-143.8 184.8-15.5 285.7 60.9 464.3 41.3 16.9-1.8 32.5-4.4 47.1-7.6L1024 .4H0v215z"
     id="path16"
     style="fill:#ffffff;opacity:0.3" />
  <path
     class="st1"
     d="M0 196.4c30.2 1.6 59.6 1.6 86.8-.4C293.4 180.9 284.1 73.4 490.7 56.2c184.9-15.5 278.5 58.2 457.1 38.4 28.3-3.2 53.5-8.2 76.2-14.6V.256H0V196.4z"
     id="path18"
     style="fill:#ffffff;opacity:0.5" />
  <path
     class="st2"
     d="M0 169.8c22.2.3 43.8-.2 64.2-1.7C270.8 153.1 262 55.6 468.6 38.4 653.4 22.9 695.4 89.5 874 69.7c54.8-6 104.9-18.3 150-33.7V.256H0V169.8z"
     id="path20"
     style="fill:#ffffff;opacity:0.8" />
  <path
     class="st3"
     d="M0 162.1c4-.2 8-.4 11.9-.7C218.4 146.3 239.8 37 446.4 19.8 631.3 4.3 672.7 60.9 851.3 41.1c64-7.2 121.9-20.8 172.7-37.9V.156H0V162.1z"
     id="path22"
     style="fill:#ffffff" />
</svg>
